<svg xmlns="http://www.w3.org/2000/svg" xmlns:xlink="http://www.w3.org/1999/xlink" width="1080" zoomAndPan="magnify" viewBox="0 0 810 95.999999" height="128" preserveAspectRatio="xMidYMid meet" version="1.0"><defs><g/></defs><path fill="#ffffff" d="M 418.859375 70.773438 L 418.839844 70.761719 L 418.785156 70.730469 C 418.734375 70.707031 418.664062 70.667969 418.574219 70.617188 C 418.398438 70.519531 418.140625 70.371094 417.816406 70.179688 C 417.164062 69.796875 416.246094 69.238281 415.144531 68.503906 C 412.949219 67.042969 410.015625 64.898438 407.070312 62.15625 C 401.246094 56.726562 395.078125 48.660156 395.078125 38.726562 C 395.078125 31.3125 401.3125 25.4375 408.839844 25.4375 C 413.265625 25.4375 417.230469 27.457031 419.757812 30.628906 C 422.28125 27.457031 426.246094 25.4375 430.671875 25.4375 C 438.199219 25.4375 444.4375 31.3125 444.4375 38.726562 C 444.4375 48.660156 438.265625 56.726562 432.441406 62.15625 C 429.5 64.898438 426.5625 67.042969 424.367188 68.503906 C 423.265625 69.238281 422.347656 69.796875 421.699219 70.179688 C 421.375 70.371094 421.117188 70.519531 420.9375 70.617188 C 420.847656 70.667969 420.777344 70.707031 420.730469 70.730469 L 420.671875 70.761719 L 420.65625 70.773438 L 420.648438 70.777344 C 420.089844 71.070312 419.421875 71.070312 418.863281 70.777344 Z M 418.859375 70.773438 " fill-opacity="1" fill-rule="nonzero"/><g fill="#ffffff" fill-opacity="1"><g transform="translate(9.672973, 60.181037)"><g><path d="M 28.71875 -19.5 L 22.625 0 L 19.28125 0 L 14.59375 -15.46875 L 9.890625 0 L 6.546875 0 L 0.421875 -19.5 L 3.734375 -19.5 L 8.21875 -3.125 L 13.0625 -19.5 L 16.359375 -19.5 L 21.09375 -3.09375 L 25.515625 -19.5 Z M 28.71875 -19.5 "/></g></g></g><g fill="#ffffff" fill-opacity="1"><g transform="translate(38.846478, 60.181037)"><g><path d="M 20.53125 -10.5 C 20.53125 -9.882812 20.492188 -9.226562 20.421875 -8.53125 L 4.84375 -8.53125 C 4.957031 -6.613281 5.613281 -5.113281 6.8125 -4.03125 C 8.007812 -2.957031 9.460938 -2.421875 11.171875 -2.421875 C 12.566406 -2.421875 13.734375 -2.742188 14.671875 -3.390625 C 15.609375 -4.046875 16.269531 -4.921875 16.65625 -6.015625 L 20.140625 -6.015625 C 19.617188 -4.140625 18.570312 -2.613281 17 -1.4375 C 15.4375 -0.269531 13.492188 0.3125 11.171875 0.3125 C 9.316406 0.3125 7.660156 -0.0976562 6.203125 -0.921875 C 4.742188 -1.753906 3.597656 -2.9375 2.765625 -4.46875 C 1.941406 -6 1.53125 -7.769531 1.53125 -9.78125 C 1.53125 -11.800781 1.929688 -13.566406 2.734375 -15.078125 C 3.546875 -16.597656 4.679688 -17.765625 6.140625 -18.578125 C 7.597656 -19.398438 9.273438 -19.8125 11.171875 -19.8125 C 13.023438 -19.8125 14.660156 -19.40625 16.078125 -18.59375 C 17.503906 -17.789062 18.601562 -16.679688 19.375 -15.265625 C 20.144531 -13.859375 20.53125 -12.269531 20.53125 -10.5 Z M 17.1875 -11.171875 C 17.1875 -12.398438 16.910156 -13.457031 16.359375 -14.34375 C 15.816406 -15.238281 15.078125 -15.914062 14.140625 -16.375 C 13.203125 -16.84375 12.164062 -17.078125 11.03125 -17.078125 C 9.394531 -17.078125 8 -16.554688 6.84375 -15.515625 C 5.695312 -14.472656 5.039062 -13.023438 4.875 -11.171875 Z M 17.1875 -11.171875 "/></g></g></g><g fill="#ffffff" fill-opacity="1"><g transform="translate(60.904496, 60.181037)"><g><path d="M 5.984375 -15.875 C 6.640625 -17.03125 7.609375 -17.972656 8.890625 -18.703125 C 10.171875 -19.441406 11.628906 -19.8125 13.265625 -19.8125 C 15.023438 -19.8125 16.601562 -19.394531 18 -18.5625 C 19.40625 -17.738281 20.507812 -16.570312 21.3125 -15.0625 C 22.113281 -13.5625 22.515625 -11.8125 22.515625 -9.8125 C 22.515625 -7.84375 22.113281 -6.085938 21.3125 -4.546875 C 20.507812 -3.003906 19.398438 -1.804688 17.984375 -0.953125 C 16.578125 -0.109375 15.003906 0.3125 13.265625 0.3125 C 11.585938 0.3125 10.113281 -0.0507812 8.84375 -0.78125 C 7.570312 -1.519531 6.617188 -2.457031 5.984375 -3.59375 L 5.984375 0 L 2.734375 0 L 2.734375 -26.328125 L 5.984375 -26.328125 Z M 19.21875 -9.8125 C 19.21875 -11.289062 18.921875 -12.570312 18.328125 -13.65625 C 17.734375 -14.75 16.929688 -15.578125 15.921875 -16.140625 C 14.910156 -16.710938 13.800781 -17 12.59375 -17 C 11.40625 -17 10.304688 -16.707031 9.296875 -16.125 C 8.296875 -15.550781 7.492188 -14.710938 6.890625 -13.609375 C 6.285156 -12.503906 5.984375 -11.226562 5.984375 -9.78125 C 5.984375 -8.3125 6.285156 -7.023438 6.890625 -5.921875 C 7.492188 -4.816406 8.296875 -3.972656 9.296875 -3.390625 C 10.304688 -2.816406 11.40625 -2.53125 12.59375 -2.53125 C 13.800781 -2.53125 14.910156 -2.816406 15.921875 -3.390625 C 16.929688 -3.972656 17.734375 -4.816406 18.328125 -5.921875 C 18.921875 -7.023438 19.21875 -8.320312 19.21875 -9.8125 Z M 19.21875 -9.8125 "/></g></g></g><g fill="#ffffff" fill-opacity="1"><g transform="translate(84.954854, 60.181037)"><g><path d="M 9.640625 0.3125 C 8.148438 0.3125 6.8125 0.0625 5.625 -0.4375 C 4.4375 -0.945312 3.5 -1.660156 2.8125 -2.578125 C 2.125 -3.492188 1.742188 -4.546875 1.671875 -5.734375 L 5.015625 -5.734375 C 5.109375 -4.753906 5.5625 -3.957031 6.375 -3.34375 C 7.195312 -2.726562 8.273438 -2.421875 9.609375 -2.421875 C 10.835938 -2.421875 11.804688 -2.691406 12.515625 -3.234375 C 13.234375 -3.785156 13.59375 -4.472656 13.59375 -5.296875 C 13.59375 -6.148438 13.210938 -6.785156 12.453125 -7.203125 C 11.691406 -7.617188 10.519531 -8.03125 8.9375 -8.4375 C 7.488281 -8.8125 6.304688 -9.191406 5.390625 -9.578125 C 4.472656 -9.972656 3.6875 -10.554688 3.03125 -11.328125 C 2.382812 -12.097656 2.0625 -13.113281 2.0625 -14.375 C 2.0625 -15.375 2.359375 -16.285156 2.953125 -17.109375 C 3.546875 -17.941406 4.382812 -18.597656 5.46875 -19.078125 C 6.5625 -19.566406 7.8125 -19.8125 9.21875 -19.8125 C 11.375 -19.8125 13.113281 -19.265625 14.4375 -18.171875 C 15.769531 -17.085938 16.484375 -15.597656 16.578125 -13.703125 L 13.34375 -13.703125 C 13.269531 -14.722656 12.859375 -15.539062 12.109375 -16.15625 C 11.367188 -16.769531 10.367188 -17.078125 9.109375 -17.078125 C 7.941406 -17.078125 7.015625 -16.828125 6.328125 -16.328125 C 5.640625 -15.828125 5.296875 -15.175781 5.296875 -14.375 C 5.296875 -13.726562 5.503906 -13.195312 5.921875 -12.78125 C 6.335938 -12.375 6.859375 -12.046875 7.484375 -11.796875 C 8.117188 -11.546875 8.992188 -11.265625 10.109375 -10.953125 C 11.503906 -10.578125 12.640625 -10.203125 13.515625 -9.828125 C 14.398438 -9.460938 15.15625 -8.910156 15.78125 -8.171875 C 16.40625 -7.441406 16.726562 -6.484375 16.75 -5.296875 C 16.75 -4.234375 16.453125 -3.273438 15.859375 -2.421875 C 15.273438 -1.566406 14.441406 -0.894531 13.359375 -0.40625 C 12.273438 0.0703125 11.035156 0.3125 9.640625 0.3125 Z M 9.640625 0.3125 "/></g></g></g><g fill="#ffffff" fill-opacity="1"><g transform="translate(103.52628, 60.181037)"><g><path d="M 4.40625 -22.65625 C 3.789062 -22.65625 3.269531 -22.867188 2.84375 -23.296875 C 2.414062 -23.722656 2.203125 -24.25 2.203125 -24.875 C 2.203125 -25.488281 2.414062 -26.007812 2.84375 -26.4375 C 3.269531 -26.863281 3.789062 -27.078125 4.40625 -27.078125 C 5 -27.078125 5.503906 -26.863281 5.921875 -26.4375 C 6.335938 -26.007812 6.546875 -25.488281 6.546875 -24.875 C 6.546875 -24.25 6.335938 -23.722656 5.921875 -23.296875 C 5.503906 -22.867188 5 -22.65625 4.40625 -22.65625 Z M 5.984375 -19.5 L 5.984375 0 L 2.734375 0 L 2.734375 -19.5 Z M 5.984375 -19.5 "/></g></g></g><g fill="#ffffff" fill-opacity="1"><g transform="translate(112.278332, 60.181037)"><g><path d="M 6.6875 -16.828125 L 6.6875 -5.34375 C 6.6875 -4.382812 6.882812 -3.707031 7.28125 -3.3125 C 7.6875 -2.925781 8.390625 -2.734375 9.390625 -2.734375 L 11.78125 -2.734375 L 11.78125 0 L 8.859375 0 C 7.054688 0 5.703125 -0.410156 4.796875 -1.234375 C 3.898438 -2.066406 3.453125 -3.4375 3.453125 -5.34375 L 3.453125 -16.828125 L 0.921875 -16.828125 L 0.921875 -19.5 L 3.453125 -19.5 L 3.453125 -24.40625 L 6.6875 -24.40625 L 6.6875 -19.5 L 11.78125 -19.5 L 11.78125 -16.828125 Z M 6.6875 -16.828125 "/></g></g></g><g fill="#ffffff" fill-opacity="1"><g transform="translate(125.228524, 60.181037)"><g><path d="M 20.53125 -10.5 C 20.53125 -9.882812 20.492188 -9.226562 20.421875 -8.53125 L 4.84375 -8.53125 C 4.957031 -6.613281 5.613281 -5.113281 6.8125 -4.03125 C 8.007812 -2.957031 9.460938 -2.421875 11.171875 -2.421875 C 12.566406 -2.421875 13.734375 -2.742188 14.671875 -3.390625 C 15.609375 -4.046875 16.269531 -4.921875 16.65625 -6.015625 L 20.140625 -6.015625 C 19.617188 -4.140625 18.570312 -2.613281 17 -1.4375 C 15.4375 -0.269531 13.492188 0.3125 11.171875 0.3125 C 9.316406 0.3125 7.660156 -0.0976562 6.203125 -0.921875 C 4.742188 -1.753906 3.597656 -2.9375 2.765625 -4.46875 C 1.941406 -6 1.53125 -7.769531 1.53125 -9.78125 C 1.53125 -11.800781 1.929688 -13.566406 2.734375 -15.078125 C 3.546875 -16.597656 4.679688 -17.765625 6.140625 -18.578125 C 7.597656 -19.398438 9.273438 -19.8125 11.171875 -19.8125 C 13.023438 -19.8125 14.660156 -19.40625 16.078125 -18.59375 C 17.503906 -17.789062 18.601562 -16.679688 19.375 -15.265625 C 20.144531 -13.859375 20.53125 -12.269531 20.53125 -10.5 Z M 17.1875 -11.171875 C 17.1875 -12.398438 16.910156 -13.457031 16.359375 -14.34375 C 15.816406 -15.238281 15.078125 -15.914062 14.140625 -16.375 C 13.203125 -16.84375 12.164062 -17.078125 11.03125 -17.078125 C 9.394531 -17.078125 8 -16.554688 6.84375 -15.515625 C 5.695312 -14.472656 5.039062 -13.023438 4.875 -11.171875 Z M 17.1875 -11.171875 "/></g></g></g><g fill="#ffffff" fill-opacity="1"><g transform="translate(147.286542, 60.181037)"><g/></g></g><g fill="#ffffff" fill-opacity="1"><g transform="translate(156.785721, 60.181037)"><g><path d="M 1.53125 -9.78125 C 1.53125 -11.800781 1.929688 -13.5625 2.734375 -15.0625 C 3.546875 -16.570312 4.664062 -17.738281 6.09375 -18.5625 C 7.53125 -19.394531 9.175781 -19.8125 11.03125 -19.8125 C 13.425781 -19.8125 15.398438 -19.226562 16.953125 -18.0625 C 18.503906 -16.90625 19.53125 -15.296875 20.03125 -13.234375 L 16.546875 -13.234375 C 16.210938 -14.421875 15.5625 -15.359375 14.59375 -16.046875 C 13.632812 -16.734375 12.445312 -17.078125 11.03125 -17.078125 C 9.175781 -17.078125 7.679688 -16.441406 6.546875 -15.171875 C 5.410156 -13.898438 4.84375 -12.101562 4.84375 -9.78125 C 4.84375 -7.4375 5.410156 -5.625 6.546875 -4.34375 C 7.679688 -3.0625 9.175781 -2.421875 11.03125 -2.421875 C 12.445312 -2.421875 13.628906 -2.75 14.578125 -3.40625 C 15.535156 -4.070312 16.191406 -5.023438 16.546875 -6.265625 L 20.03125 -6.265625 C 19.507812 -4.265625 18.460938 -2.664062 16.890625 -1.46875 C 15.328125 -0.28125 13.375 0.3125 11.03125 0.3125 C 9.175781 0.3125 7.53125 -0.0976562 6.09375 -0.921875 C 4.664062 -1.753906 3.546875 -2.925781 2.734375 -4.4375 C 1.929688 -5.957031 1.53125 -7.738281 1.53125 -9.78125 Z M 1.53125 -9.78125 "/></g></g></g><g fill="#ffffff" fill-opacity="1"><g transform="translate(178.38123, 60.181037)"><g><path d="M 5.984375 -16.328125 C 6.546875 -17.441406 7.351562 -18.304688 8.40625 -18.921875 C 9.46875 -19.546875 10.757812 -19.859375 12.28125 -19.859375 L 12.28125 -16.515625 L 11.421875 -16.515625 C 7.796875 -16.515625 5.984375 -14.546875 5.984375 -10.609375 L 5.984375 0 L 2.734375 0 L 2.734375 -19.5 L 5.984375 -19.5 Z M 5.984375 -16.328125 "/></g></g></g><g fill="#ffffff" fill-opacity="1"><g transform="translate(191.651617, 60.181037)"><g><path d="M 20.53125 -10.5 C 20.53125 -9.882812 20.492188 -9.226562 20.421875 -8.53125 L 4.84375 -8.53125 C 4.957031 -6.613281 5.613281 -5.113281 6.8125 -4.03125 C 8.007812 -2.957031 9.460938 -2.421875 11.171875 -2.421875 C 12.566406 -2.421875 13.734375 -2.742188 14.671875 -3.390625 C 15.609375 -4.046875 16.269531 -4.921875 16.65625 -6.015625 L 20.140625 -6.015625 C 19.617188 -4.140625 18.570312 -2.613281 17 -1.4375 C 15.4375 -0.269531 13.492188 0.3125 11.171875 0.3125 C 9.316406 0.3125 7.660156 -0.0976562 6.203125 -0.921875 C 4.742188 -1.753906 3.597656 -2.9375 2.765625 -4.46875 C 1.941406 -6 1.53125 -7.769531 1.53125 -9.78125 C 1.53125 -11.800781 1.929688 -13.566406 2.734375 -15.078125 C 3.546875 -16.597656 4.679688 -17.765625 6.140625 -18.578125 C 7.597656 -19.398438 9.273438 -19.8125 11.171875 -19.8125 C 13.023438 -19.8125 14.660156 -19.40625 16.078125 -18.59375 C 17.503906 -17.789062 18.601562 -16.679688 19.375 -15.265625 C 20.144531 -13.859375 20.53125 -12.269531 20.53125 -10.5 Z M 17.1875 -11.171875 C 17.1875 -12.398438 16.910156 -13.457031 16.359375 -14.34375 C 15.816406 -15.238281 15.078125 -15.914062 14.140625 -16.375 C 13.203125 -16.84375 12.164062 -17.078125 11.03125 -17.078125 C 9.394531 -17.078125 8 -16.554688 6.84375 -15.515625 C 5.695312 -14.472656 5.039062 -13.023438 4.875 -11.171875 Z M 17.1875 -11.171875 "/></g></g></g><g fill="#ffffff" fill-opacity="1"><g transform="translate(213.709635, 60.181037)"><g><path d="M 1.53125 -9.8125 C 1.53125 -11.8125 1.929688 -13.5625 2.734375 -15.0625 C 3.546875 -16.570312 4.65625 -17.738281 6.0625 -18.5625 C 7.476562 -19.394531 9.050781 -19.8125 10.78125 -19.8125 C 12.488281 -19.8125 13.96875 -19.441406 15.21875 -18.703125 C 16.476562 -17.972656 17.414062 -17.050781 18.03125 -15.9375 L 18.03125 -19.5 L 21.3125 -19.5 L 21.3125 0 L 18.03125 0 L 18.03125 -3.625 C 17.394531 -2.488281 16.441406 -1.546875 15.171875 -0.796875 C 13.898438 -0.0546875 12.425781 0.3125 10.75 0.3125 C 9.007812 0.3125 7.441406 -0.109375 6.046875 -0.953125 C 4.648438 -1.804688 3.546875 -3.003906 2.734375 -4.546875 C 1.929688 -6.085938 1.53125 -7.84375 1.53125 -9.8125 Z M 18.03125 -9.78125 C 18.03125 -11.25 17.734375 -12.53125 17.140625 -13.625 C 16.554688 -14.71875 15.757812 -15.550781 14.75 -16.125 C 13.738281 -16.707031 12.628906 -17 11.421875 -17 C 10.210938 -17 9.109375 -16.710938 8.109375 -16.140625 C 7.117188 -15.578125 6.328125 -14.75 5.734375 -13.65625 C 5.140625 -12.570312 4.84375 -11.289062 4.84375 -9.8125 C 4.84375 -8.320312 5.140625 -7.023438 5.734375 -5.921875 C 6.328125 -4.816406 7.117188 -3.972656 8.109375 -3.390625 C 9.109375 -2.816406 10.210938 -2.53125 11.421875 -2.53125 C 12.628906 -2.53125 13.738281 -2.816406 14.75 -3.390625 C 15.757812 -3.972656 16.554688 -4.816406 17.140625 -5.921875 C 17.734375 -7.023438 18.03125 -8.3125 18.03125 -9.78125 Z M 18.03125 -9.78125 "/></g></g></g><g fill="#ffffff" fill-opacity="1"><g transform="translate(237.759983, 60.181037)"><g><path d="M 6.6875 -16.828125 L 6.6875 -5.34375 C 6.6875 -4.382812 6.882812 -3.707031 7.28125 -3.3125 C 7.6875 -2.925781 8.390625 -2.734375 9.390625 -2.734375 L 11.78125 -2.734375 L 11.78125 0 L 8.859375 0 C 7.054688 0 5.703125 -0.410156 4.796875 -1.234375 C 3.898438 -2.066406 3.453125 -3.4375 3.453125 -5.34375 L 3.453125 -16.828125 L 0.921875 -16.828125 L 0.921875 -19.5 L 3.453125 -19.5 L 3.453125 -24.40625 L 6.6875 -24.40625 L 6.6875 -19.5 L 11.78125 -19.5 L 11.78125 -16.828125 Z M 6.6875 -16.828125 "/></g></g></g><g fill="#ffffff" fill-opacity="1"><g transform="translate(250.710174, 60.181037)"><g><path d="M 20.53125 -10.5 C 20.53125 -9.882812 20.492188 -9.226562 20.421875 -8.53125 L 4.84375 -8.53125 C 4.957031 -6.613281 5.613281 -5.113281 6.8125 -4.03125 C 8.007812 -2.957031 9.460938 -2.421875 11.171875 -2.421875 C 12.566406 -2.421875 13.734375 -2.742188 14.671875 -3.390625 C 15.609375 -4.046875 16.269531 -4.921875 16.65625 -6.015625 L 20.140625 -6.015625 C 19.617188 -4.140625 18.570312 -2.613281 17 -1.4375 C 15.4375 -0.269531 13.492188 0.3125 11.171875 0.3125 C 9.316406 0.3125 7.660156 -0.0976562 6.203125 -0.921875 C 4.742188 -1.753906 3.597656 -2.9375 2.765625 -4.46875 C 1.941406 -6 1.53125 -7.769531 1.53125 -9.78125 C 1.53125 -11.800781 1.929688 -13.566406 2.734375 -15.078125 C 3.546875 -16.597656 4.679688 -17.765625 6.140625 -18.578125 C 7.597656 -19.398438 9.273438 -19.8125 11.171875 -19.8125 C 13.023438 -19.8125 14.660156 -19.40625 16.078125 -18.59375 C 17.503906 -17.789062 18.601562 -16.679688 19.375 -15.265625 C 20.144531 -13.859375 20.53125 -12.269531 20.53125 -10.5 Z M 17.1875 -11.171875 C 17.1875 -12.398438 16.910156 -13.457031 16.359375 -14.34375 C 15.816406 -15.238281 15.078125 -15.914062 14.140625 -16.375 C 13.203125 -16.84375 12.164062 -17.078125 11.03125 -17.078125 C 9.394531 -17.078125 8 -16.554688 6.84375 -15.515625 C 5.695312 -14.472656 5.039062 -13.023438 4.875 -11.171875 Z M 17.1875 -11.171875 "/></g></g></g><g fill="#ffffff" fill-opacity="1"><g transform="translate(272.768193, 60.181037)"><g><path d="M 1.53125 -9.8125 C 1.53125 -11.8125 1.929688 -13.5625 2.734375 -15.0625 C 3.546875 -16.570312 4.65625 -17.738281 6.0625 -18.5625 C 7.476562 -19.394531 9.0625 -19.8125 10.8125 -19.8125 C 12.332031 -19.8125 13.742188 -19.460938 15.046875 -18.765625 C 16.347656 -18.066406 17.34375 -17.148438 18.03125 -16.015625 L 18.03125 -26.328125 L 21.3125 -26.328125 L 21.3125 0 L 18.03125 0 L 18.03125 -3.671875 C 17.394531 -2.503906 16.445312 -1.546875 15.1875 -0.796875 C 13.9375 -0.0546875 12.46875 0.3125 10.78125 0.3125 C 9.050781 0.3125 7.476562 -0.109375 6.0625 -0.953125 C 4.65625 -1.804688 3.546875 -3.003906 2.734375 -4.546875 C 1.929688 -6.085938 1.53125 -7.84375 1.53125 -9.8125 Z M 18.03125 -9.78125 C 18.03125 -11.25 17.734375 -12.53125 17.140625 -13.625 C 16.554688 -14.71875 15.757812 -15.550781 14.75 -16.125 C 13.738281 -16.707031 12.628906 -17 11.421875 -17 C 10.210938 -17 9.109375 -16.710938 8.109375 -16.140625 C 7.117188 -15.578125 6.328125 -14.75 5.734375 -13.65625 C 5.140625 -12.570312 4.84375 -11.289062 4.84375 -9.8125 C 4.84375 -8.320312 5.140625 -7.023438 5.734375 -5.921875 C 6.328125 -4.816406 7.117188 -3.972656 8.109375 -3.390625 C 9.109375 -2.816406 10.210938 -2.53125 11.421875 -2.53125 C 12.628906 -2.53125 13.738281 -2.816406 14.75 -3.390625 C 15.757812 -3.972656 16.554688 -4.816406 17.140625 -5.921875 C 17.734375 -7.023438 18.03125 -8.3125 18.03125 -9.78125 Z M 18.03125 -9.78125 "/></g></g></g><g fill="#ffffff" fill-opacity="1"><g transform="translate(296.81854, 60.181037)"><g/></g></g><g fill="#ffffff" fill-opacity="1"><g transform="translate(306.317719, 60.181037)"><g><path d="M 28.71875 -19.5 L 22.625 0 L 19.28125 0 L 14.59375 -15.46875 L 9.890625 0 L 6.546875 0 L 0.421875 -19.5 L 3.734375 -19.5 L 8.21875 -3.125 L 13.0625 -19.5 L 16.359375 -19.5 L 21.09375 -3.09375 L 25.515625 -19.5 Z M 28.71875 -19.5 "/></g></g></g><g fill="#ffffff" fill-opacity="1"><g transform="translate(335.491234, 60.181037)"><g><path d="M 4.40625 -22.65625 C 3.789062 -22.65625 3.269531 -22.867188 2.84375 -23.296875 C 2.414062 -23.722656 2.203125 -24.25 2.203125 -24.875 C 2.203125 -25.488281 2.414062 -26.007812 2.84375 -26.4375 C 3.269531 -26.863281 3.789062 -27.078125 4.40625 -27.078125 C 5 -27.078125 5.503906 -26.863281 5.921875 -26.4375 C 6.335938 -26.007812 6.546875 -25.488281 6.546875 -24.875 C 6.546875 -24.25 6.335938 -23.722656 5.921875 -23.296875 C 5.503906 -22.867188 5 -22.65625 4.40625 -22.65625 Z M 5.984375 -19.5 L 5.984375 0 L 2.734375 0 L 2.734375 -19.5 Z M 5.984375 -19.5 "/></g></g></g><g fill="#ffffff" fill-opacity="1"><g transform="translate(344.243297, 60.181037)"><g><path d="M 6.6875 -16.828125 L 6.6875 -5.34375 C 6.6875 -4.382812 6.882812 -3.707031 7.28125 -3.3125 C 7.6875 -2.925781 8.390625 -2.734375 9.390625 -2.734375 L 11.78125 -2.734375 L 11.78125 0 L 8.859375 0 C 7.054688 0 5.703125 -0.410156 4.796875 -1.234375 C 3.898438 -2.066406 3.453125 -3.4375 3.453125 -5.34375 L 3.453125 -16.828125 L 0.921875 -16.828125 L 0.921875 -19.5 L 3.453125 -19.5 L 3.453125 -24.40625 L 6.6875 -24.40625 L 6.6875 -19.5 L 11.78125 -19.5 L 11.78125 -16.828125 Z M 6.6875 -16.828125 "/></g></g></g><g fill="#ffffff" fill-opacity="1"><g transform="translate(357.193509, 60.181037)"><g><path d="M 12.421875 -19.859375 C 13.890625 -19.859375 15.21875 -19.539062 16.40625 -18.90625 C 17.59375 -18.28125 18.519531 -17.335938 19.1875 -16.078125 C 19.863281 -14.828125 20.203125 -13.296875 20.203125 -11.484375 L 20.203125 0 L 17 0 L 17 -11.03125 C 17 -12.976562 16.515625 -14.46875 15.546875 -15.5 C 14.578125 -16.53125 13.25 -17.046875 11.5625 -17.046875 C 9.851562 -17.046875 8.492188 -16.507812 7.484375 -15.4375 C 6.484375 -14.375 5.984375 -12.820312 5.984375 -10.78125 L 5.984375 0 L 2.734375 0 L 2.734375 -26.328125 L 5.984375 -26.328125 L 5.984375 -16.71875 C 6.617188 -17.71875 7.5 -18.488281 8.625 -19.03125 C 9.75 -19.582031 11.015625 -19.859375 12.421875 -19.859375 Z M 12.421875 -19.859375 "/></g></g></g><g fill="#ffffff" fill-opacity="1"><g transform="translate(459.517358, 60.181037)"><g><path d="M 5.984375 -15.875 C 6.640625 -17.03125 7.609375 -17.972656 8.890625 -18.703125 C 10.171875 -19.441406 11.628906 -19.8125 13.265625 -19.8125 C 15.023438 -19.8125 16.601562 -19.394531 18 -18.5625 C 19.40625 -17.738281 20.507812 -16.570312 21.3125 -15.0625 C 22.113281 -13.5625 22.515625 -11.8125 22.515625 -9.8125 C 22.515625 -7.84375 22.113281 -6.085938 21.3125 -4.546875 C 20.507812 -3.003906 19.398438 -1.804688 17.984375 -0.953125 C 16.578125 -0.109375 15.003906 0.3125 13.265625 0.3125 C 11.585938 0.3125 10.113281 -0.0507812 8.84375 -0.78125 C 7.570312 -1.519531 6.617188 -2.457031 5.984375 -3.59375 L 5.984375 0 L 2.734375 0 L 2.734375 -26.328125 L 5.984375 -26.328125 Z M 19.21875 -9.8125 C 19.21875 -11.289062 18.921875 -12.570312 18.328125 -13.65625 C 17.734375 -14.75 16.929688 -15.578125 15.921875 -16.140625 C 14.910156 -16.710938 13.800781 -17 12.59375 -17 C 11.40625 -17 10.304688 -16.707031 9.296875 -16.125 C 8.296875 -15.550781 7.492188 -14.710938 6.890625 -13.609375 C 6.285156 -12.503906 5.984375 -11.226562 5.984375 -9.78125 C 5.984375 -8.3125 6.285156 -7.023438 6.890625 -5.921875 C 7.492188 -4.816406 8.296875 -3.972656 9.296875 -3.390625 C 10.304688 -2.816406 11.40625 -2.53125 12.59375 -2.53125 C 13.800781 -2.53125 14.910156 -2.816406 15.921875 -3.390625 C 16.929688 -3.972656 17.734375 -4.816406 18.328125 -5.921875 C 18.921875 -7.023438 19.21875 -8.320312 19.21875 -9.8125 Z M 19.21875 -9.8125 "/></g></g></g><g fill="#ffffff" fill-opacity="1"><g transform="translate(483.567716, 60.181037)"><g><path d="M 19.53125 -19.5 L 7.796875 9.171875 L 4.453125 9.171875 L 8.296875 -0.21875 L 0.421875 -19.5 L 4.015625 -19.5 L 10.140625 -3.703125 L 16.1875 -19.5 Z M 19.53125 -19.5 "/></g></g></g><g fill="#ffffff" fill-opacity="1"><g transform="translate(512.856538, 67.68073)"><g><path d="M 18.5625 -40.078125 C 22.78125 -40.078125 26.46875 -39.238281 29.625 -37.5625 C 32.789062 -35.894531 35.238281 -33.546875 36.96875 -30.515625 C 38.695312 -27.492188 39.5625 -24.003906 39.5625 -20.046875 C 39.5625 -16.117188 38.695312 -12.632812 36.96875 -9.59375 C 35.238281 -6.550781 32.78125 -4.191406 29.59375 -2.515625 C 26.414062 -0.835938 22.738281 0 18.5625 0 L 3.546875 0 L 3.546875 -40.078125 Z M 17.921875 -8.453125 C 21.617188 -8.453125 24.492188 -9.457031 26.546875 -11.46875 C 28.597656 -13.488281 29.625 -16.347656 29.625 -20.046875 C 29.625 -23.734375 28.597656 -26.601562 26.546875 -28.65625 C 24.492188 -30.71875 21.617188 -31.75 17.921875 -31.75 L 13.296875 -31.75 L 13.296875 -8.453125 Z M 17.921875 -8.453125 "/></g></g></g><g fill="#ffffff" fill-opacity="1"><g transform="translate(554.363094, 67.68073)"><g><path d="M 8.453125 -35.171875 C 6.734375 -35.171875 5.332031 -35.675781 4.25 -36.6875 C 3.164062 -37.695312 2.625 -38.941406 2.625 -40.421875 C 2.625 -41.941406 3.164062 -43.207031 4.25 -44.21875 C 5.332031 -45.226562 6.734375 -45.734375 8.453125 -45.734375 C 10.128906 -45.734375 11.507812 -45.226562 12.59375 -44.21875 C 13.675781 -43.207031 14.21875 -41.941406 14.21875 -40.421875 C 14.21875 -38.941406 13.675781 -37.695312 12.59375 -36.6875 C 11.507812 -35.675781 10.128906 -35.171875 8.453125 -35.171875 Z M 13.296875 -31.859375 L 13.296875 0 L 3.546875 0 L 3.546875 -31.859375 Z M 13.296875 -31.859375 "/></g></g></g><g fill="#ffffff" fill-opacity="1"><g transform="translate(571.205512, 67.68073)"><g><path d="M 13.296875 -42.25 L 13.296875 0 L 3.546875 0 L 3.546875 -42.25 Z M 13.296875 -42.25 "/></g></g></g><g fill="#ffffff" fill-opacity="1"><g transform="translate(588.04793, 67.68073)"><g><path d="M 1.59375 -15.984375 C 1.59375 -19.253906 2.210938 -22.125 3.453125 -24.59375 C 4.691406 -27.070312 6.375 -28.976562 8.5 -30.3125 C 10.632812 -31.644531 13.015625 -32.3125 15.640625 -32.3125 C 17.890625 -32.3125 19.859375 -31.851562 21.546875 -30.9375 C 23.242188 -30.03125 24.550781 -28.832031 25.46875 -27.34375 L 25.46875 -31.859375 L 35.234375 -31.859375 L 35.234375 0 L 25.46875 0 L 25.46875 -4.515625 C 24.507812 -3.023438 23.179688 -1.820312 21.484375 -0.90625 C 19.796875 0 17.832031 0.453125 15.59375 0.453125 C 13 0.453125 10.632812 -0.21875 8.5 -1.5625 C 6.375 -2.914062 4.691406 -4.835938 3.453125 -7.328125 C 2.210938 -9.828125 1.59375 -12.710938 1.59375 -15.984375 Z M 25.46875 -15.921875 C 25.46875 -18.359375 24.789062 -20.28125 23.4375 -21.6875 C 22.082031 -23.101562 20.4375 -23.8125 18.5 -23.8125 C 16.5625 -23.8125 14.914062 -23.113281 13.5625 -21.71875 C 12.207031 -20.332031 11.53125 -18.421875 11.53125 -15.984375 C 11.53125 -13.546875 12.207031 -11.613281 13.5625 -10.1875 C 14.914062 -8.757812 16.5625 -8.046875 18.5 -8.046875 C 20.4375 -8.046875 22.082031 -8.75 23.4375 -10.15625 C 24.789062 -11.570312 25.46875 -13.492188 25.46875 -15.921875 Z M 25.46875 -15.921875 "/></g></g></g><g fill="#ffffff" fill-opacity="1"><g transform="translate(626.814034, 67.68073)"><g><path d="M 22.953125 -32.203125 C 26.679688 -32.203125 29.660156 -30.992188 31.890625 -28.578125 C 34.117188 -26.160156 35.234375 -22.835938 35.234375 -18.609375 L 35.234375 0 L 25.515625 0 L 25.515625 -17.296875 C 25.515625 -19.429688 24.960938 -21.085938 23.859375 -22.265625 C 22.753906 -23.441406 21.269531 -24.03125 19.40625 -24.03125 C 17.539062 -24.03125 16.054688 -23.441406 14.953125 -22.265625 C 13.847656 -21.085938 13.296875 -19.429688 13.296875 -17.296875 L 13.296875 0 L 3.546875 0 L 3.546875 -31.859375 L 13.296875 -31.859375 L 13.296875 -27.640625 C 14.285156 -29.046875 15.617188 -30.15625 17.296875 -30.96875 C 18.972656 -31.789062 20.859375 -32.203125 22.953125 -32.203125 Z M 22.953125 -32.203125 "/></g></g></g><g fill="#ffffff" fill-opacity="1"><g transform="translate(665.294665, 67.68073)"><g/></g></g><g fill="#ffffff" fill-opacity="1"><g transform="translate(677.398366, 67.68073)"><g><path d="M 39.390625 0 L 29.625 0 L 13.296875 -24.71875 L 13.296875 0 L 3.546875 0 L 3.546875 -40.078125 L 13.296875 -40.078125 L 29.625 -15.25 L 29.625 -40.078125 L 39.390625 -40.078125 Z M 39.390625 0 "/></g></g></g><g fill="#ffffff" fill-opacity="1"><g transform="translate(720.332263, 67.68073)"><g><path d="M 1.59375 -15.984375 C 1.59375 -19.253906 2.210938 -22.125 3.453125 -24.59375 C 4.691406 -27.070312 6.375 -28.976562 8.5 -30.3125 C 10.632812 -31.644531 13.015625 -32.3125 15.640625 -32.3125 C 17.890625 -32.3125 19.859375 -31.851562 21.546875 -30.9375 C 23.242188 -30.03125 24.550781 -28.832031 25.46875 -27.34375 L 25.46875 -31.859375 L 35.234375 -31.859375 L 35.234375 0 L 25.46875 0 L 25.46875 -4.515625 C 24.507812 -3.023438 23.179688 -1.820312 21.484375 -0.90625 C 19.796875 0 17.832031 0.453125 15.59375 0.453125 C 13 0.453125 10.632812 -0.21875 8.5 -1.5625 C 6.375 -2.914062 4.691406 -4.835938 3.453125 -7.328125 C 2.210938 -9.828125 1.59375 -12.710938 1.59375 -15.984375 Z M 25.46875 -15.921875 C 25.46875 -18.359375 24.789062 -20.28125 23.4375 -21.6875 C 22.082031 -23.101562 20.4375 -23.8125 18.5 -23.8125 C 16.5625 -23.8125 14.914062 -23.113281 13.5625 -21.71875 C 12.207031 -20.332031 11.53125 -18.421875 11.53125 -15.984375 C 11.53125 -13.546875 12.207031 -11.613281 13.5625 -10.1875 C 14.914062 -8.757812 16.5625 -8.046875 18.5 -8.046875 C 20.4375 -8.046875 22.082031 -8.75 23.4375 -10.15625 C 24.789062 -11.570312 25.46875 -13.492188 25.46875 -15.921875 Z M 25.46875 -15.921875 "/></g></g></g><g fill="#ffffff" fill-opacity="1"><g transform="translate(759.098367, 67.68073)"><g><path d="M 8.453125 -35.171875 C 6.734375 -35.171875 5.332031 -35.675781 4.25 -36.6875 C 3.164062 -37.695312 2.625 -38.941406 2.625 -40.421875 C 2.625 -41.941406 3.164062 -43.207031 4.25 -44.21875 C 5.332031 -45.226562 6.734375 -45.734375 8.453125 -45.734375 C 10.128906 -45.734375 11.507812 -45.226562 12.59375 -44.21875 C 13.675781 -43.207031 14.21875 -41.941406 14.21875 -40.421875 C 14.21875 -38.941406 13.675781 -37.695312 12.59375 -36.6875 C 11.507812 -35.675781 10.128906 -35.171875 8.453125 -35.171875 Z M 13.296875 -31.859375 L 13.296875 0 L 3.546875 0 L 3.546875 -31.859375 Z M 13.296875 -31.859375 "/></g></g></g><g fill="#ffffff" fill-opacity="1"><g transform="translate(775.940785, 67.68073)"><g><path d="M 13.296875 -26.546875 C 14.441406 -28.296875 15.867188 -29.675781 17.578125 -30.6875 C 19.296875 -31.695312 21.203125 -32.203125 23.296875 -32.203125 L 23.296875 -21.859375 L 20.609375 -21.859375 C 18.171875 -21.859375 16.34375 -21.335938 15.125 -20.296875 C 13.90625 -19.253906 13.296875 -17.414062 13.296875 -14.78125 L 13.296875 0 L 3.546875 0 L 3.546875 -31.859375 L 13.296875 -31.859375 Z M 13.296875 -26.546875 "/></g></g></g></svg>